<?xml version="1.0" encoding="utf-8"?>
<!-- Generator: Adobe Illustrator 19.0.0, SVG Export Plug-In . SVG Version: 6.00 Build 0)  -->
<svg version="1.1" id="Layer_1" xmlns="http://www.w3.org/2000/svg" xmlns:xlink="http://www.w3.org/1999/xlink" x="0px" y="0px"
	 viewBox="160 -90 620 481" style="enable-background:new 160 -90 620 481;" xml:space="preserve">
<style type="text/css">
	.st0{opacity:0.92;fill:#2458A6;enable-background:new    ;}
	.st1{fill:#191919;}
	.st2{fill:#121212;}
	.st3{fill:none;stroke:#121212;stroke-width:7;stroke-miterlimit:10;}
	.st4{fill:#FFFFFF;}
	.st5{display:none;fill:#F0644C;}
	.st6{fill:#7FBCEF;}
	.st7{opacity:0.7;enable-background:new    ;}
	.st8{opacity:0.49;fill:#C5EAFF;enable-background:new    ;}
	.st9{opacity:0.66;fill:#F2644B;enable-background:new    ;}
	.st10{fill:none;}
	.st11{fill:none;stroke:#FF351A;stroke-width:13;stroke-miterlimit:10;}
	.st12{fill:#D32109;}
	.st13{opacity:0.49;enable-background:new    ;}
	.st14{fill:#BCDAF3;}
	.st15{opacity:0.49;fill:#BCDAF3;enable-background:new    ;}
	.st16{fill:#2F3187;}
	.st17{enable-background:new    ;}
	.st18{fill:#7F7F7F;}
	.st19{fill:none;stroke:#8C8C8C;stroke-width:2;stroke-miterlimit:10;}
	.st20{fill:none;stroke:#8C8C8C;stroke-width:2;stroke-miterlimit:10;stroke-dasharray:6.8013,6.8013;}
	.st21{fill:none;stroke:#8C8C8C;stroke-width:2;stroke-miterlimit:10;stroke-dasharray:7;}
	.st22{fill:#E34E26;}
	.st23{fill:#F06529;}
	.st24{fill:#EBEAEA;}
	.st25{fill:#007DC2;}
	.st26{fill:#008DD1;}
	.st27{fill:#EAEBEC;}
	.st28{fill:#474A8A;}
</style>
<path id="settings_1_" class="st0" d="M259.1-36.1c0.3-10.2,8.7-18.2,18.9-18c10.2,0.3,18.2,8.7,18,18.9c-0.1,4.3-1.7,8.2-4.3,11.4
	l29.7,0.2c0.2-0.5,0.3-1,0.4-1.4c0.1-0.5-0.1-0.9-0.4-1.3l-7.8-5.7c-0.3-0.3-0.5-0.5-0.5-1l0.1-3.7c0-0.4,0.2-0.7,0.5-0.9l8.1-5.6
	c0.3-0.3,0.5-0.7,0.5-1.1c-0.8-6.7-5-14-6.3-16.2c-0.3-0.4-0.7-0.5-1.1-0.5l-9.6,1.4c-0.4,0.1-0.7-0.1-1-0.3l-2.7-2.6
	c-0.3-0.3-0.4-0.7-0.3-1.1l2.1-9.4c0.1-0.5-0.1-0.9-0.4-1.3c-6-4.3-13.7-6.7-16.1-7.3c-0.5-0.1-0.9,0.1-1.3,0.4l-5.9,8.2
	c-0.2,0.3-0.5,0.5-0.9,0.5H275c-0.4,0-0.8-0.2-1-0.5l-5.1-8.4c-0.3-0.4-0.8-0.7-1.3-0.5c-9.6,2.6-14.6,5.6-16.2,6.7
	c-0.4,0.3-0.5,0.7-0.5,1.1l1.4,9.2c0.1,0.4-0.1,0.8-0.4,1.1l-3.2,2.8c-0.3,0.3-0.7,0.3-1.1,0.3l-8.6-2.1c-0.5-0.1-1,0.1-1.3,0.5
	c-4.9,7.7-6.6,14.1-7.1,16.2c-0.1,0.4,0.1,0.9,0.5,1.2l7.7,5.7c0.3,0.2,0.5,0.5,0.5,0.9v3.5c0,0.4-0.2,0.7-0.5,1l-8.1,5.7
	c-0.4,0.3-0.5,0.7-0.5,1.1c0.1,0.9,0.3,1.8,0.5,2.7l32.5,0.2C260.6-27.3,259-31.5,259.1-36.1z"/>
<g id="desktop_1_">
	<path id="XMLID_16_" class="st1" d="M229,158.9V23.3c0-9.3,7.6-16.9,16.9-16.9H626c9.3,0,16.9,7.6,16.9,16.9v236.8
		c0,9.3-7.6,16.9-16.9,16.9H245.7c-9.3,0-16.9-7.6-16.9-16.9L229,158.9"/>
	<path id="XMLID_28_" class="st2" d="M508.9,334.9c-48.5,0-97,0-145.5,0c5.6-19.3,11.3-38.6,16.9-57.9H494
		C499,296.3,503.9,315.6,508.9,334.9z"/>
	<line id="XMLID_27_" class="st3" x1="344.9" y1="336.7" x2="524.9" y2="336.7"/>
	<polyline id="XMLID_15_" class="st4" points="623.9,48.8 623.9,245.8 247.4,245.8 247.4,27 623.9,27 623.9,48.8 	"/>
	<path id="XMLID_7_" class="st5" d="M336.4,100.8l3.8-2.7c0.2-0.1,0.2-0.4,0.2-0.5c-0.7-3.8-2.4-6.7-3-7.6c-0.1-0.2-0.3-0.2-0.5-0.2
		l-4.5,0.6c-0.2,0-0.4-0.1-0.5-0.2l-1.2-1.1c-0.1-0.1-0.2-0.3-0.2-0.5l0.8-4.5c0.1-0.2-0.1-0.4-0.2-0.5c-2.4-1.8-6.4-2.9-7.6-3.2
		c-0.2-0.1-0.4,0-0.6,0.2l-2.6,3.7c-0.1,0.1-0.3,0.2-0.5,0.2l-1.7-0.1c-0.2,0-0.4-0.1-0.4-0.2l-2.6-3.8c-0.1-0.2-0.3-0.2-0.5-0.2
		c-3.2,0.4-6.6,2.4-7.6,3.1c-0.2,0.1-0.3,0.3-0.2,0.5l0.6,4.5c0,0.2-0.1,0.4-0.2,0.5L306,90c-0.1,0.1-0.3,0.2-0.5,0.1l-4.5-1
		c-0.2-0.1-0.4,0.1-0.6,0.2c-2.1,2.8-3.1,6.5-3.4,7.6c-0.1,0.2,0,0.4,0.2,0.6l3.9,2.8c0.1,0.1,0.2,0.2,0.2,0.4v1.8
		c0,0.2-0.1,0.4-0.2,0.5l-3.9,2.4c-0.2,0.1-0.3,0.4-0.2,0.6c1.2,4.5,2.7,6.8,3.2,7.6c0.1,0.2,0.3,0.2,0.5,0.2l4.3-0.6
		c0.2,0,0.4,0.1,0.5,0.2l1.4,1.5c0.1,0.1,0.2,0.3,0.1,0.5l-0.9,4.1c-0.1,0.2,0.1,0.5,0.2,0.6c3.6,2.3,6.6,3.1,7.6,3.3
		c0.2,0.1,0.4-0.1,0.5-0.2l2.6-3.6c0.1-0.1,0.2-0.2,0.4-0.2h1.6c0.2,0,0.4,0.1,0.5,0.2l2.7,3.8c0.1,0.2,0.3,0.2,0.5,0.2
		c3.6-0.5,6.7-2.5,7.6-3.1c0.2-0.1,0.2-0.3,0.2-0.5l-0.6-4.5c0-0.2,0.1-0.4,0.2-0.5l1.1-1.1c0.1-0.1,0.3-0.2,0.5-0.2l4.6,0.8
		c0.2,0.1,0.4-0.1,0.5-0.2c1.9-2.5,3-6.3,3.2-7.5c0.1-0.2,0-0.4-0.2-0.6l-3.6-2.7c-0.1-0.1-0.2-0.3-0.2-0.5v-1.7
		C336.2,101.1,336.3,100.9,336.4,100.8z M318.5,109.7c-4.8-0.1-8.6-4-8.5-8.8s4-8.6,8.8-8.5s8.6,4,8.5,8.8
		C327.3,106,323.3,109.8,318.5,109.7z"/>
	<path class="st6" d="M585.6,229.4H223.3c-8.4,0-15.1-5.6-15.1-12.5V-18.6c0-7,6.8-12.5,15.1-12.5h362.3c8.4,0,15.1,5.6,15.1,12.5
		v235.5C600.7,223.9,593.9,229.4,585.6,229.4z"/>
	<g>
		<g id="lines_2_" class="st7">
			<path id="XMLID_21_" class="st8" d="M493.5,54.9H235.8c-1.4,0-2.5-0.6-2.5-1.1v-5.9c0-0.6,1.2-1.1,2.5-1.1h257.6
				c1.4,0,2.5,0.6,2.5,1.1v5.9C496,54.4,495,54.9,493.5,54.9z"/>
			<path id="XMLID_20_" class="st8" d="M493.5,68.8H235.8c-1.4,0-2.5-0.6-2.5-1.1v-5.9c0-0.6,1.2-1.1,2.5-1.1h257.6
				c1.4,0,2.5,0.6,2.5,1.1v5.9C496,68.4,495,68.8,493.5,68.8z"/>
			<path id="XMLID_19_" class="st8" d="M493.5,97.2H235.8c-1.4,0-2.5-0.6-2.5-1.1v-5.9c0-0.6,1.2-1.1,2.5-1.1h257.6
				c1.4,0,2.5,0.6,2.5,1.1v5.9C496,96.8,495,97.2,493.5,97.2z"/>
			<path id="XMLID_18_" class="st8" d="M356.6,83.3H235.8c-1.4,0-2.5-0.6-2.5-1.1v-5.9c0-0.6,1.2-1.1,2.5-1.1h120.8
				c1.4,0,2.5,0.6,2.5,1.1v5.9C359.2,82.8,357.9,83.3,356.6,83.3z"/>
		</g>
		<path id="XMLID_17_" class="st8" d="M568.1,122.6h-47.6c-4.5,0-8.3-1.7-8.3-3.9V50.6c0-2.1,3.7-3.9,8.3-3.9h47.6
			c4.5,0,8.3,1.7,8.3,3.9v68.1C576.3,120.8,572.6,122.6,568.1,122.6z"/>
		<path id="XMLID_14_" class="st8" d="M567.6,206.3h-47.2c-4.5,0-8.2-2.8-8.2-6.1v-64.7c0-3.3,3.7-6.1,8.2-6.1h47.2
			c4.5,0,8.2,2.8,8.2,6.1v64.7C575.7,203.6,572.1,206.3,567.6,206.3z"/>
		<path class="st8" d="M346.6,206.3H235.3c-1.1,0-2.2-0.6-2.2-1.4v-96.2c0-0.8,0.9-1.4,2.2-1.4h111.3c1.1,0,2.2,0.6,2.2,1.4V205
			C348.6,205.7,347.7,206.3,346.6,206.3z"/>
		<path class="st8" d="M490.4,206.3H369.1c-1.2,0-2.3-0.6-2.3-1.4v-96.2c0-0.8,1-1.4,2.3-1.4h121.3c1.2,0,2.3,0.6,2.3,1.4V205
			C492.8,205.7,491.8,206.3,490.4,206.3z"/>
	</g>
	<rect x="233.3" y="-13.2" class="st4" width="342.5" height="46.1"/>
</g>
<g id="laptop">
	<path id="settings" class="st9" d="M671.7,170.3c0.3-10.2,8.7-18.2,18.9-18c10.2,0.3,18.2,8.7,18,18.9c-0.1,4.3-1.7,8.2-4.3,11.4
		l29.7,0.2c0.2-0.5,0.3-1,0.4-1.4c0.1-0.5-0.1-0.9-0.4-1.3l-7.8-5.7c-0.3-0.3-0.5-0.5-0.5-1l0.1-3.7c0-0.4,0.2-0.7,0.5-0.9l8.1-5.6
		c0.3-0.3,0.5-0.7,0.5-1.1c-0.8-6.7-5-14-6.3-16.2c-0.3-0.4-0.7-0.5-1.1-0.5l-9.6,1.4c-0.4,0.1-0.7-0.1-1-0.3l-2.7-2.6
		c-0.3-0.3-0.4-0.7-0.3-1.1l2.1-9.4c0.1-0.5-0.1-0.9-0.4-1.3c-6-4.3-13.7-6.7-16.1-7.3c-0.5-0.1-0.9,0.1-1.3,0.4l-5.9,8.2
		c-0.2,0.3-0.5,0.5-0.9,0.5h-3.8c-0.4,0-0.8-0.2-1-0.5l-5.1-8.4c-0.3-0.4-0.8-0.7-1.3-0.5c-9.6,2.6-14.6,5.6-16.2,6.7
		c-0.4,0.3-0.5,0.7-0.5,1.1l1.4,9.2c0.1,0.4-0.1,0.8-0.4,1.1l-3.2,2.8c-0.3,0.3-0.7,0.3-1.1,0.3l-8.6-2.1c-0.5-0.1-1,0.1-1.3,0.5
		c-4.9,7.7-6.6,14.1-7.1,16.2c-0.1,0.4,0.1,0.9,0.5,1.2l7.7,5.7c0.3,0.2,0.5,0.5,0.5,0.9v3.5c0,0.4-0.2,0.7-0.5,1l-8.1,5.7
		c-0.4,0.3-0.5,0.7-0.5,1.1c0.1,0.9,0.3,1.8,0.5,2.7l32.5,0.2C673.2,179.1,671.6,174.9,671.7,170.3z"/>
	<rect x="477.3" y="188.1" class="st4" width="256.8" height="171"/>
	<polyline id="XMLID_8_" class="st10" points="728.2,205 728.2,330.8 498.3,330.8 498.3,191.1 728.2,191.1 728.2,205 	"/>
	<g id="XMLID_1_">
		<path class="st11" d="M736.3,359H474.7V194c0-4.7,3.8-8.5,8.5-8.5h244.6c4.7,0,8.5,3.8,8.5,8.5L736.3,359L736.3,359z"/>
		<polygon class="st12" points="451,364.3 761,364.3 758.2,376 455,376 		"/>
	</g>
	<g id="lines" class="st13">
		<path id="XMLID_29_" class="st14" d="M648.7,213.6H503.9c-0.8,0-1.4-0.5-1.4-1v-5.1c0-0.5,0.7-1,1.4-1h144.7c0.8,0,1.4,0.5,1.4,1
			v5.1C650,213.2,649.5,213.6,648.7,213.6z"/>
		<path id="XMLID_32_" class="st14" d="M648.7,225.8H503.9c-0.8,0-1.4-0.5-1.4-1v-5.2c0-0.5,0.7-1,1.4-1h144.7c0.8,0,1.4,0.5,1.4,1
			v5.1C650,225.3,649.5,225.8,648.7,225.8z"/>
		<path id="XMLID_34_" class="st14" d="M648.7,250.4H503.9c-0.8,0-1.4-0.5-1.4-1v-5.1c0-0.5,0.7-1,1.4-1h144.7c0.8,0,1.4,0.5,1.4,1
			v5.1C650,250,649.5,250.4,648.7,250.4z"/>
		<path id="XMLID_33_" class="st14" d="M571.8,238.3h-67.9c-0.8,0-1.4-0.5-1.4-1v-5.1c0-0.5,0.7-1,1.4-1h67.9c0.8,0,1.4,0.5,1.4,1
			v5.1C573.2,237.9,572.5,238.3,571.8,238.3z"/>
	</g>
	<path id="XMLID_11_" class="st15" d="M704.7,272.3h-28.6c-2.7,0-5-1.5-5-3.3v-59.2c0-1.8,2.3-3.3,5-3.3h28.6c2.7,0,5,1.5,5,3.3V269
		C709.6,270.8,707.3,272.3,704.7,272.3z"/>
	<path id="XMLID_10_" class="st15" d="M704.3,345.1H676c-2.7,0-4.9-2.4-4.9-5.3v-56.2c0-2.9,2.3-5.3,4.9-5.3h28.3
		c2.7,0,4.9,2.4,4.9,5.3v56.2C709.2,342.7,707,345.1,704.3,345.1z"/>
	<path class="st15" d="M567.4,345.1h-63.7c-0.7,0-1.2-0.5-1.2-1.2v-83.5c0-0.7,0.5-1.2,1.2-1.2h63.7c0.7,0,1.2,0.5,1.2,1.2v83.5
		C568.6,344.6,568.1,345.1,567.4,345.1z"/>
	<path class="st15" d="M647.5,345.1h-63.7c-0.7,0-1.2-0.5-1.2-1.2v-83.5c0-0.7,0.5-1.2,1.2-1.2h63.7c0.7,0,1.2,0.5,1.2,1.2v83.5
		C648.7,344.6,648.2,345.1,647.5,345.1z"/>
</g>
<g id="mobile">
	<g id="iphone">
		<g id="XMLID_9_">
			<path class="st4" d="M184.6,373.8c-3,0-5.4-2.4-5.4-5.4V230c0-3,2.4-5.4,5.4-5.4h67.3c3,0,5.4,2.4,5.4,5.4v138.3
				c0,3-2.4,5.4-5.4,5.4L184.6,373.8L184.6,373.8L184.6,373.8z"/>
			<path class="st16" d="M251.9,226.9c1.8,0,3.2,1.4,3.2,3.2v138.3c0,1.8-1.4,3.2-3.2,3.2h-67.3c-1.8,0-3.2-1.4-3.2-3.2V230
				c0-1.8,1.4-3.2,3.2-3.2L251.9,226.9 M251.9,222.5h-67.3c-4.2,0-7.6,3.4-7.6,7.6v138.3c0,4.2,3.4,7.6,7.6,7.6h67.3
				c4.2,0,7.6-3.4,7.6-7.6V230C259.5,225.9,256.1,222.5,251.9,222.5L251.9,222.5z"/>
		</g>
		<path id="XMLID_2_" class="st16" d="M255.8,243.9h-75.2c-1,0-1.9-0.8-1.9-1.9v-14.4c0-1,0.8-1.9,1.9-1.9h75.2c1,0,1.9,0.8,1.9,1.9
			V242C257.7,243,256.9,243.9,255.8,243.9z"/>
		<path id="XMLID_6_" class="st16" d="M255.8,372.8h-75.2c-1,0-1.9-0.8-1.9-1.9v-20.3c0-1,0.8-1.9,1.9-1.9h75.2c1,0,1.9,0.8,1.9,1.9
			v20.3C257.7,371.9,256.9,372.8,255.8,372.8z"/>
		<path id="XMLID_5_" class="st4" d="M224.7,234.1h-14.8c-0.8,0-1.5-0.7-1.5-1.5V232c0-0.8,0.7-1.5,1.5-1.5h14.8
			c0.8,0,1.5,0.7,1.5,1.5v0.6C226.3,233.4,225.6,234.1,224.7,234.1z"/>
		<circle id="XMLID_3_" class="st4" cx="218.4" cy="361.6" r="5"/>
	</g>
	<g id="lines_1_" class="st13">
		<path id="XMLID_13_" class="st14" d="M248.4,256.7h-60c-0.4,0-0.6-0.5-0.6-1.2v-6c0-0.6,0.3-1.2,0.6-1.2h60c0.4,0,0.6,0.5,0.6,1.2
			v6C249,256.3,248.8,256.7,248.4,256.7z"/>
		<path id="XMLID_12_" class="st14" d="M248.4,271h-60c-0.4,0-0.6-0.5-0.6-1.2v-6c0-0.6,0.3-1.2,0.6-1.2h60c0.4,0,0.6,0.5,0.6,1.2v6
			C249,270.5,248.8,271,248.4,271z"/>
		<path id="XMLID_4_" class="st14" d="M216.5,285.8h-28.2c-0.4,0-0.6-0.5-0.6-1.2v-6c0-0.6,0.3-1.2,0.6-1.2h28.2
			c0.4,0,0.6,0.5,0.6,1.2v6C217.1,285.3,216.8,285.8,216.5,285.8z"/>
	</g>
	<path class="st15" d="M247.8,342.4h-59.4c-0.6,0-1.2-0.4-1.2-0.7v-49.1c0-0.4,0.5-0.7,1.2-0.7h59.4c0.6,0,1.2,0.4,1.2,0.7v49.1
		C249,342.1,248.4,342.4,247.8,342.4z"/>
</g>
<g class="st17">
	<path class="st1" d="M281.9,86.4l0,4.2h-12.5v6.8h11.4v4.2h-11.4v10h-4.8V86.4H281.9z"/>
	<path class="st1" d="M296.5,92.1v4.5c-4.1-0.3-6.6,2.1-6.6,5.6v9.3h-4.7V92.3h4.7V96C291.3,93.5,293.5,92.2,296.5,92.1z"/>
	<path class="st1" d="M318.3,101.9c0,5.9-4.1,9.8-10.1,9.8c-6.1,0-10.2-4-10.2-9.8c0-5.8,4.1-9.8,10.2-9.8
		C314.2,92.2,318.3,96.1,318.3,101.9z M302.8,102c0,3.5,2.2,5.8,5.5,5.8c3.2,0,5.4-2.4,5.4-5.8c0-3.5-2.2-5.8-5.4-5.8
		C305,96.2,302.8,98.6,302.8,102z"/>
	<path class="st1" d="M341.1,99.6v12h-4.7v-10.7c0-2.7-1.6-4.4-4.3-4.4c-3.2,0-5,2.4-5,5.5v9.5h-4.7V92.3h4.7v3.6
		c1.4-2.6,3.8-3.7,6.9-3.8C338.4,92.1,341.1,95,341.1,99.6z"/>
	<path class="st1" d="M357.7,110.4c-1.5,0.9-3.1,1.4-4.8,1.4c-3.1,0-5.7-1.8-5.7-5.8v-9.5h-2.7l0-3.4h2.7v-5.3h4.6v5.3h5.5v3.4h-5.5
		v8.7c0,1.8,0.8,2.4,2,2.4c0.8,0,1.7-0.3,2.7-0.8L357.7,110.4z"/>
	<path class="st1" d="M369.6,99v3.2h-9V99H369.6z"/>
	<path class="st1" d="M391.9,103.6h-14.2c0.6,2.7,2.7,4.4,5.5,4.4c2,0,3.8-0.8,5.2-2.2l2.5,2.6c-1.9,2.1-4.7,3.3-8.1,3.3
		c-6,0-9.9-4-9.9-9.8c0-5.9,4-9.8,9.8-9.8C389.4,92.2,392.4,96.6,391.9,103.6z M387.6,100.5c-0.1-2.8-2-4.6-4.9-4.6
		c-2.8,0-4.7,1.8-5.1,4.6H387.6z"/>
	<path class="st1" d="M414.7,99.6v12H410v-10.7c0-2.7-1.6-4.4-4.3-4.4c-3.2,0-5,2.4-5,5.5v9.5H396V92.3h4.7v3.6
		c1.4-2.6,3.8-3.7,6.9-3.8C412,92.1,414.7,95,414.7,99.6z"/>
	<path class="st1" d="M438.5,84.9v26.7h-4.7v-3.1c-1.4,2.1-3.6,3.3-6.5,3.3c-5.5,0-9.2-4-9.2-9.9c0-5.8,3.7-9.8,9.1-9.8
		c3,0,5.2,1.2,6.6,3.3V84.9H438.5z M433.8,102c0-3.5-2.2-5.9-5.5-5.9c-3.2,0-5.4,2.4-5.5,5.9c0,3.5,2.2,5.9,5.5,5.9
		C431.6,107.9,433.8,105.5,433.8,102z"/>
</g>
<g class="st17">
	<path class="st1" d="M288.1,142.2c0,7.3-5.5,12.6-13.3,12.6h-10.3v-25.2H275C282.6,129.6,288.1,134.8,288.1,142.2z M283.2,142.2
		c0-4.9-3.6-8.4-8.3-8.4h-5.6v16.7h5.8C279.7,150.5,283.2,147.1,283.2,142.2z"/>
	<path class="st1" d="M309.4,146.8h-14.2c0.6,2.7,2.7,4.4,5.5,4.4c2,0,3.8-0.8,5.2-2.2l2.5,2.6c-1.9,2.1-4.7,3.3-8.1,3.3
		c-6,0-9.9-4-9.9-9.8c0-5.9,4-9.8,9.8-9.8C306.9,135.4,309.9,139.8,309.4,146.8z M305.1,143.7c-0.1-2.8-2-4.6-4.9-4.6
		c-2.8,0-4.7,1.8-5.1,4.6H305.1z"/>
	<path class="st1" d="M314.7,135.5l5,14.7l4.9-14.7h4.7l-7.3,19.3h-4.8l-7.4-19.2L314.7,135.5z"/>
	<path class="st1" d="M348.7,146.8h-14.2c0.6,2.7,2.7,4.4,5.5,4.4c2,0,3.8-0.8,5.2-2.2l2.5,2.6c-1.9,2.1-4.7,3.3-8.1,3.3
		c-6,0-9.9-4-9.9-9.8c0-5.9,4-9.8,9.8-9.8C346.2,135.4,349.1,139.8,348.7,146.8z M344.4,143.7c-0.1-2.8-2-4.6-4.9-4.6
		c-2.8,0-4.7,1.8-5.1,4.6H344.4z"/>
	<path class="st1" d="M357.6,128.1v26.7h-4.7v-26.7H357.6z"/>
	<path class="st1" d="M382.1,145.1c0,5.9-4.1,9.8-10.1,9.8c-6.1,0-10.2-4-10.2-9.8c0-5.8,4.1-9.8,10.2-9.8
		C378,135.4,382.1,139.3,382.1,145.1z M366.6,145.2c0,3.5,2.2,5.8,5.5,5.8c3.2,0,5.4-2.4,5.4-5.8c0-3.5-2.2-5.8-5.4-5.8
		C368.8,139.4,366.6,141.8,366.6,145.2z"/>
	<path class="st1" d="M406.7,145.2c0,5.8-3.6,9.7-9,9.7c-2.9,0-5.1-1.2-6.6-3.3v10.1h-4.7v-26.2h4.7v3.2c1.4-2.1,3.6-3.3,6.5-3.3
		C403,135.4,406.7,139.3,406.7,145.2z M401.9,145.1c0-3.4-2.2-5.8-5.4-5.8c-3.2,0-5.4,2.4-5.4,5.8c0,3.5,2.2,5.8,5.4,5.8
		C399.7,150.9,401.9,148.5,401.9,145.1z"/>
	<path class="st1" d="M443,142.8v12h-4.7v-10.7c0-2.7-1.6-4.4-4.2-4.4c-3,0.1-4.9,2.4-4.9,5.5v9.5h-4.7v-10.7c0-2.7-1.6-4.4-4.2-4.4
		c-3.1,0.1-4.9,2.4-4.9,5.5v9.5h-4.7v-19.3h4.7v3.6c1.3-2.6,3.7-3.7,6.8-3.7c3.4,0,5.7,1.7,6.6,4.6c1.3-3.1,3.8-4.6,7.2-4.6
		C440.3,135.3,443,138.2,443,142.8z"/>
	<path class="st1" d="M465.4,146.8h-14.2c0.6,2.7,2.7,4.4,5.5,4.4c2,0,3.8-0.8,5.2-2.2l2.5,2.6c-1.9,2.1-4.7,3.3-8.1,3.3
		c-6,0-9.9-4-9.9-9.8c0-5.9,4-9.8,9.8-9.8C463,135.4,465.9,139.8,465.4,146.8z M461.2,143.7c-0.1-2.8-2-4.6-4.9-4.6
		c-2.8,0-4.7,1.8-5.1,4.6H461.2z"/>
	<path class="st1" d="M488.2,142.8v12h-4.7v-10.7c0-2.7-1.6-4.4-4.3-4.4c-3.2,0-5,2.4-5,5.5v9.5h-4.7v-19.3h4.7v3.6
		c1.4-2.6,3.8-3.7,6.9-3.8C485.5,135.3,488.2,138.2,488.2,142.8z"/>
	<path class="st1" d="M504.8,153.6c-1.5,0.9-3.1,1.4-4.8,1.4c-3.1,0-5.7-1.8-5.7-5.8v-9.5h-2.7l0-3.4h2.7V131h4.6v5.3h5.5v3.4h-5.5
		v8.7c0,1.8,0.8,2.4,2,2.4c0.8,0,1.7-0.3,2.7-0.8L504.8,153.6z"/>
</g>
<path class="st18" d="M715-16.4c0.5-1.1,0.8-2.4,0.8-3.7c0-5.7-5.2-10.3-11.5-10.3c-2.4,0-4.6,0.6-6.4,1.7
	c-3.3-5.1-9.5-8.6-16.6-8.6c-10.6,0-19.2,7.7-19.2,17.1c0,0.3,0,0.6,0,0.9c-6.7,2.1-11.5,7.8-11.5,14.6c0,8.5,7.7,15.4,17.3,15.4
	h44.2c8.5,0,15.4-6.1,15.4-13.7C727.2-9.6,722-15.1,715-16.4z"/>
<g>
	<g>
		<line class="st19" x1="688.9" y1="10.8" x2="688.9" y2="14.3"/>
		<line class="st20" x1="688.9" y1="21.1" x2="688.9" y2="126.5"/>
		<line class="st19" x1="688.9" y1="129.9" x2="688.9" y2="133.4"/>
	</g>
</g>
<line class="st21" x1="600.7" y1="-13.2" x2="650.5" y2="-13.2"/>
<polyline class="st21" points="208.2,15.6 187.8,15.6 187.8,222.4 "/>
<polyline class="st21" points="259.5,317.1 296.2,317.1 296.2,277.4 "/>
<polygon class="st22" points="524.8,106.3 520.5,57.6 568.2,57.6 563.8,106.3 544.3,111.7 "/>
<polygon class="st23" points="544.3,107.5 560.1,103.2 563.8,61.6 544.3,61.6 "/>
<polygon class="st24" points="544.3,79.6 536.4,79.6 535.9,73.5 544.3,73.5 544.3,67.5 544.3,67.5 529.4,67.5 529.5,69.1 531,85.6 
	544.3,85.6 "/>
<polygon class="st24" points="544.3,95.1 544.3,95.1 537.6,93.3 537.2,88.6 534,88.6 531.2,88.6 532.1,98 544.3,101.4 544.3,101.3 
	"/>
<polygon class="st4" points="544.3,79.6 544.3,85.6 551.7,85.6 551,93.3 544.3,95.1 544.3,101.3 556.5,98 556.6,96.9 558,81.2 
	558.2,79.6 556.6,79.6 "/>
<polygon class="st4" points="544.3,67.5 544.3,71.3 544.3,73.5 544.3,73.5 558.7,73.5 558.7,73.5 558.7,73.5 558.8,72.2 559.1,69.1 
	559.3,67.5 "/>
<polyline class="st25" points="514.6,279.8 557.1,279.8 553.3,323.1 536,328.1 518.1,323.1 "/>
<polyline class="st26" points="536,284 536,323.9 550.3,319.8 553.5,284 "/>
<polyline class="st27" points="522.2,289 522.9,294.3 535.7,294.2 523.1,299.7 523.8,304.7 536,304.7 536,289 "/>
<polyline class="st27" points="529.8,311.5 529.3,307.5 524.1,307.5 524.8,315.8 536,318.9 536,318.9 536,312.8 "/>
<polyline class="st4" points="548.1,299.2 536.6,299.2 549.1,294.2 549.1,289 536,289 536,304.7 542.4,304.7 541.7,311.8 536,312.8 
	536,318.9 546.7,315.5 "/>
<path id="XMLID_23_" d="M592.3,314.1l4.9-3c0.9,1.7,1.8,3.1,3.8,3.1s3.2-0.8,3.2-3.8V290h6v20.4c0,6.2-3.6,9-8.9,9
	C596.4,319.6,593.7,317.1,592.3,314.1"/>
<path id="XMLID_22_" d="M613.4,313.4l4.9-2.8c1.3,2.1,3,3.6,5.9,3.6c2.5,0,4.1-1.2,4.1-3c0-2.1-1.6-2.8-4.4-4l-1.5-0.6
	c-4.3-1.8-7.2-4.1-7.2-9c0-4.5,3.4-7.9,8.8-7.9c3.8,0,6.5,1.3,8.5,4.8l-4.7,3c-1-1.8-2.1-2.6-3.8-2.6c-1.8,0-2.9,1.1-2.9,2.6
	c0,1.8,1.1,2.5,3.7,3.6l1.5,0.6c5.1,2.2,8,4.4,8,9.4c0,5.4-4.2,8.3-9.9,8.3C618.8,319.6,615.2,316.9,613.4,313.4"/>
<g id="Php_icon">
	<g id="XMLID_24_">
		<path id="XMLID_30_" class="st28" d="M204.6,312.1c1.4,0,2.3,0.2,2.7,0.8c0.4,0.5,0.6,1.4,0.3,2.6c-0.2,1.3-0.7,2.2-1.5,2.7
			c-0.7,0.5-1.8,0.8-3.3,0.8h-2.2l1.3-6.9H204.6L204.6,312.1z M195.8,326.1h3.6l0.9-4.4h3.1c1.4,0,2.5-0.2,3.4-0.4
			c0.9-0.2,1.7-0.8,2.4-1.5c0.6-0.5,1.1-1.2,1.5-1.8c0.4-0.7,0.6-1.4,0.8-2.2c0.4-1.9,0.1-3.5-0.9-4.6s-2.5-1.7-4.6-1.7h-7
			L195.8,326.1z"/>
		<path id="XMLID_26_" class="st28" d="M214.1,305.1h3.6l-0.9,4.4h3.2c2,0,3.4,0.3,4.1,1.1c0.8,0.7,1,1.8,0.7,3.4l-1.5,7.7h-3.7
			l1.4-7.3c0.2-0.8,0.1-1.4-0.2-1.7c-0.3-0.3-0.9-0.4-1.8-0.4h-2.9l-1.9,9.5h-3.6L214.1,305.1z"/>
		<path id="XMLID_25_" class="st28" d="M232.8,312.1c1.4,0,2.3,0.2,2.7,0.8c0.4,0.5,0.6,1.4,0.3,2.6c-0.2,1.3-0.7,2.2-1.5,2.7
			c-0.7,0.5-1.8,0.8-3.3,0.8h-2.2l1.3-6.9H232.8L232.8,312.1z M224,326.1h3.6l0.9-4.4h3.1c1.4,0,2.5-0.2,3.4-0.4
			c0.9-0.3,1.7-0.8,2.4-1.5c0.6-0.5,1.1-1.2,1.5-1.8c0.4-0.7,0.6-1.4,0.8-2.2c0.4-1.9,0.1-3.5-0.9-4.6s-2.5-1.7-4.6-1.7h-7
			L224,326.1z"/>
	</g>
</g>
</svg>
